<svg width="24" height="24" viewBox="0 0 24 24" fill="none" xmlns="http://www.w3.org/2000/svg">
<path fill-rule="evenodd" clip-rule="evenodd" d="M1.78751 6.07361C2.85143 4.9418 3.91535 4.56453 5.33345 5.31907C6.6107 5.9983 7.31292 6.06587 7.9577 6.0729C8.62983 6.06587 9.36076 5.9983 10.6913 5.31907C12.1683 4.56453 13.2759 4.9418 14.3843 6.07361C15.6903 7.40813 16.0937 8.79755 16.2311 9.84701C16.2475 9.93147 16.2612 10.0159 16.2742 10.1004C15.8333 10.2328 15.4388 10.493 15.1376 10.8499C14.8365 11.2068 14.6414 11.6453 14.5757 12.1132C14.5099 12.5811 14.5763 13.0586 14.7669 13.4887C14.9575 13.9188 15.2643 14.2834 15.6506 14.5389L15.5966 14.6818C15.3258 14.4845 15.0181 14.3473 14.693 14.2789C14.368 14.2105 14.0327 14.2124 13.7084 14.2846C13.3841 14.3567 13.0779 14.4975 12.8093 14.698C12.5406 14.8984 12.3154 15.1542 12.148 15.449C11.9805 15.7439 11.8744 16.0713 11.8364 16.4106C11.7985 16.7499 11.8295 17.0936 11.9274 17.4199C12.0254 17.7462 12.1882 18.048 12.4055 18.3061C12.6228 18.5642 12.8899 18.7729 13.1898 18.9191C13.128 18.9979 13.0649 19.0756 13.0004 19.152C12.4294 19.7637 11.7799 20.1558 11.0756 20.0361C8.86025 19.6581 8.49103 19.6581 8.1218 19.6581H7.80044C7.44625 19.6581 7.09138 19.6581 4.96423 20.0361C3.26168 20.3373 1.89417 17.3945 1.21589 15.8861C0.149233 13.519 -0.0634139 11.0999 0.014534 9.84701C0.146498 8.79685 0.534187 7.40813 1.78751 6.07431" fill="#FEDB22"/>
<path fill-rule="evenodd" clip-rule="evenodd" d="M21.0905 7.10125C21.8586 7.38493 22.4857 7.97107 22.834 8.73071C23.1823 9.49036 23.2231 10.3613 22.9476 11.152C22.9257 11.2146 22.8963 11.2716 22.8608 11.323C23.4186 11.8172 23.7859 12.5008 23.8963 13.2498C24.0067 13.9989 23.8528 14.7638 23.4625 15.4061C23.2705 15.721 23.0264 15.9988 22.7411 16.2268C22.8028 16.8562 22.6792 17.4902 22.3862 18.0463C22.7673 18.2583 23.1006 18.5508 23.3643 18.9046C23.6279 19.2584 23.8161 19.6655 23.9164 20.0993C24.0167 20.5331 24.0268 20.9838 23.9463 21.4219C23.8657 21.86 23.6961 22.2757 23.4487 22.6417C23.2013 23.0077 22.8816 23.3158 22.5106 23.5459C22.1395 23.7759 21.7254 23.9228 21.2954 23.9767C20.8654 24.0307 20.4292 23.9906 20.0154 23.859C19.6015 23.7275 19.2192 23.5074 18.8936 23.2133C18.3737 23.6522 17.7283 23.9037 17.0564 23.9293C16.3844 23.9548 15.7228 23.7531 15.1728 23.3549C14.6227 22.9568 14.2145 22.3841 14.0107 21.7245C13.8068 21.0648 13.8184 20.3546 14.0438 19.7025C13.2575 19.6589 12.5173 19.3067 11.9757 18.7183C11.4341 18.13 11.1322 17.3503 11.1322 16.5397C11.1322 15.7291 11.4341 14.9494 11.9757 14.361C12.5173 13.7726 13.2575 13.4204 14.0438 13.3769C13.8738 12.8844 13.8248 12.3562 13.9013 11.8395C13.9777 11.3228 14.1772 10.8336 14.4819 10.4156C14.7866 9.9975 15.1871 9.66356 15.6477 9.4435C16.1082 9.22345 16.6145 9.12414 17.1213 9.15442C17.1282 9.10726 17.1391 9.05939 17.1555 9.01224C17.4312 8.22172 18.0007 7.57631 18.7386 7.21794C19.4766 6.85957 20.3225 6.8176 21.0905 7.10125ZM19.7346 22.0984C19.9182 22.2807 20.139 22.4184 20.3809 22.5014C20.6228 22.5844 20.8797 22.6107 21.1328 22.5783C21.3858 22.5458 21.6286 22.4555 21.8434 22.314C22.0581 22.1724 22.2394 21.9832 22.3739 21.7601C22.5084 21.5371 22.5927 21.2859 22.6206 21.025C22.6486 20.7641 22.6195 20.5 22.5354 20.2522C22.4514 20.0043 22.3146 19.779 22.1349 19.5927C21.9553 19.4063 21.7375 19.2637 21.4974 19.1753C21.4741 19.1667 21.4512 19.1568 21.429 19.1457C20.9743 19.4695 20.4307 19.6708 19.844 19.7032C19.9582 20.034 20.0205 20.3916 20.0205 20.7632C20.0205 21.2404 19.9179 21.6923 19.7346 22.0984ZM19.844 13.3776C20.3193 13.4036 20.7822 13.5428 21.1963 13.7842C21.6104 14.0257 21.9644 14.3628 22.2304 14.7691C22.3924 14.5424 22.4995 14.2791 22.5428 14.0012C22.5933 13.6747 22.5533 13.3402 22.4276 13.036C22.3019 12.7318 22.0955 12.4702 21.832 12.2812C21.5685 12.0922 21.2587 11.9834 20.9379 11.9673C20.6172 11.9512 20.2985 12.0284 20.0184 12.1902C20.0344 12.5936 19.9752 12.9971 19.844 13.3776ZM19.6505 10.8092C20.287 10.5314 20.9957 10.4818 21.6628 10.6684C21.8134 10.2292 21.7887 9.7464 21.5941 9.32589C21.3995 8.90539 21.0508 8.58147 20.6246 8.42515C20.1983 8.26883 19.7293 8.29286 19.3202 8.49197C18.9111 8.69108 18.5955 9.04902 18.4424 9.48734C18.4364 9.5045 18.4298 9.52141 18.4225 9.53802C18.9418 9.83181 19.368 10.2731 19.6505 10.8092ZM16.9436 10.5572C16.4902 10.5572 16.0554 10.7426 15.7348 11.0726C15.4143 11.4026 15.2342 11.8502 15.2342 12.3169C15.2342 12.7836 15.4143 13.2311 15.7348 13.5611C16.0554 13.8911 16.4902 14.0765 16.9436 14.0765C17.3969 14.0765 17.8317 13.8911 18.1523 13.5611C18.4729 13.2311 18.653 12.7836 18.653 12.3169C18.653 11.8502 18.4729 11.4026 18.1523 11.0726C17.8317 10.7426 17.3969 10.5572 16.9436 10.5572ZM14.2086 14.7804C13.7552 14.7804 13.3204 14.9658 12.9998 15.2958C12.6793 15.6258 12.4992 16.0733 12.4992 16.54C12.4992 17.0067 12.6793 17.4543 12.9998 17.7843C13.3204 18.1143 13.7552 18.2997 14.2086 18.2997C14.6619 18.2997 15.0967 18.1143 15.4173 17.7843C15.7378 17.4543 15.9179 17.0067 15.9179 16.54C15.9179 16.0733 15.7378 15.6258 15.4173 15.2958C15.0967 14.9658 14.6619 14.7804 14.2086 14.7804ZM17.9692 16.54C17.9692 16.0733 18.1493 15.6258 18.4699 15.2958C18.7904 14.9658 19.2252 14.7804 19.6786 14.7804C20.1319 14.7804 20.5667 14.9658 20.8873 15.2958C21.2079 15.6258 21.388 16.0733 21.388 16.54C21.388 17.0067 21.2079 17.4543 20.8873 17.7843C20.5667 18.1143 20.1319 18.2997 19.6786 18.2997C19.2252 18.2997 18.7904 18.1143 18.4699 17.7843C18.1493 17.4543 17.9692 17.0067 17.9692 16.54ZM16.9436 19.0035C16.4902 19.0035 16.0554 19.1889 15.7348 19.5189C15.4143 19.8489 15.2342 20.2965 15.2342 20.7632C15.2342 21.2299 15.4143 21.6775 15.7348 22.0075C16.0554 22.3375 16.4902 22.5228 16.9436 22.5228C17.3969 22.5228 17.8317 22.3375 18.1523 22.0075C18.4729 21.6775 18.653 21.2299 18.653 20.7632C18.653 20.2965 18.4729 19.8489 18.1523 19.5189C17.8317 19.1889 17.3969 19.0035 16.9436 19.0035ZM0.386475 0H1.16117C3.10303 0 4.93138 0.89883 6.26607 2.09187C6.70004 2.47814 7.09331 2.91034 7.43939 3.38135V1.8054C7.43939 1.61873 7.51143 1.4397 7.63966 1.3077C7.76789 1.1757 7.9418 1.10154 8.12315 1.10154C8.30449 1.10154 8.4784 1.1757 8.60663 1.3077C8.73486 1.4397 8.8069 1.61873 8.8069 1.8054V6.45089C8.80704 6.55722 8.78373 6.6622 8.73872 6.75791C8.69371 6.85362 8.62818 6.93757 8.54707 7.00342V7.03791H8.50058C8.38853 7.11471 8.25687 7.15558 8.12225 7.15533C7.98764 7.15508 7.85612 7.11372 7.74435 7.0365C6.07599 7.00553 4.39942 6.33756 3.07978 5.26558C1.72868 4.16756 0.703052 2.60499 0.482884 0.790435L0.386475 0ZM7.05034 5.56754C6.80829 4.79963 6.23257 3.92614 5.36967 3.1547C4.43977 2.32415 3.26371 1.69138 2.03022 1.48233C2.36047 2.51138 3.03739 3.43836 3.92695 4.16123C4.83839 4.90098 5.94197 5.39932 7.05034 5.56754Z" fill="#FEDB22"/>
<path fill-rule="evenodd" clip-rule="evenodd" d="M21.1746 0.804565L21.2991 1.59148C21.6102 3.5644 21.0413 5.56689 20.1107 7.11397C19.1959 8.63572 17.8311 9.87311 16.4082 10.111L15.7333 10.2236L15.6239 9.52963C15.3504 7.79461 15.721 5.9329 16.5566 4.3844C17.3928 2.83591 18.7275 1.54362 20.4314 1.0291L21.1746 0.804565ZM20.0164 2.71203C19.083 3.21318 18.3022 4.04936 17.7518 5.06855C17.1884 6.11308 16.8861 7.31387 16.9032 8.4682C17.6007 8.09868 18.346 7.3737 18.9477 6.37281C19.5959 5.2959 20.0136 3.99869 20.017 2.71273" fill="#FEDB22"/>
</svg>
