<svg width="24" height="24" viewBox="0 0 24 24" fill="none" xmlns="http://www.w3.org/2000/svg">
<path d="M7.73127 0L6.86104 1.13014L7.73127 2.26018L8.60303 1.13004L7.73127 0ZM18.2204 0.377791L17.0782 1.85762L18.2204 3.33893L19.3609 1.85762L18.2204 0.377791ZM11.5514 1.29802L10.4108 2.77784L11.5513 4.25767L12.6935 2.77784L11.5514 1.29802ZM1.77716 1.4658L0.906932 2.59584L1.77716 3.72598L2.64903 2.59584L1.77726 1.4658H1.77716ZM21.7989 2.70154L21.103 4.1643L19.5961 4.8405L21.1031 5.54464L21.7989 6.9794L22.4932 5.51664L24 4.8405L22.5219 4.16435L21.7989 2.70164V2.70154ZM6.40033 3.35913L5.52688 5.19799L3.63449 6.04674L5.52698 6.93115L6.40038 8.7343L7.27215 6.89544L9.16464 6.04669L7.309 5.19799L6.40038 3.35903L6.40033 3.35913ZM17.0782 3.81765L15.936 5.29747L17.0782 6.77879L18.2188 5.29747L17.0782 3.81765ZM11.9512 6.95766L11.0042 8.1857L11.9512 9.41522L12.8982 8.1856L11.9512 6.95766ZM17.2254 8.5028L16.5087 10.0137L14.9538 10.7101L16.5087 11.436L17.2254 12.919L17.9437 11.4081L19.4986 10.7101L17.974 10.0137L17.2253 8.5028H17.2254ZM3.3833 8.84935L2.51153 9.978L3.3833 11.108L4.25353 9.9779L3.3833 8.84935ZM8.20155 10.1956L7.33132 11.3257L8.20155 12.4557L9.07342 11.3257L8.20165 10.1956H8.20155ZM11.9209 11.3925C11.5281 11.3979 11.189 11.608 10.8107 11.8914C8.45417 13.6574 5.47041 16.2203 5.43422 17.6522C5.01257 17.7009 4.6375 17.914 4.6375 18.2895C4.6375 18.8495 5.42501 19.0504 6.00043 18.8989C5.99306 18.9342 5.98932 18.9701 5.98927 19.0061C5.98927 19.8058 7.59664 19.8743 7.8961 19.2283C9.66727 19.6884 11.8397 19.7658 13.8246 19.5346C13.945 20.2782 15.5628 20.2893 15.7538 19.5858C16.2784 19.96 17.2337 19.9819 17.8126 19.6543C18.359 19.9911 19.4715 19.8255 19.4715 19.1661C19.4715 19.0685 19.4477 18.9821 19.4043 18.9066C19.7043 18.7802 19.9194 18.5589 19.9194 18.2412C19.9194 17.5283 18.837 17.3098 18.1421 17.5651C17.9099 16.0144 15.0861 13.3492 12.9784 11.8105C12.5641 11.5081 12.2265 11.3881 11.921 11.3924L11.9209 11.3925ZM2.93866 16.9838C2.38837 16.9849 1.83808 17.2335 1.83808 17.7253C1.83808 18.7088 4.03925 18.6903 4.03925 17.7253C4.03925 17.2289 3.4888 16.9826 2.93866 16.9837V16.9838ZM22.9251 17.632C22.4364 17.6341 21.9476 17.8517 21.9476 18.2801C21.9476 19.1621 23.9025 19.154 23.9025 18.2801C23.9025 17.8433 23.4138 17.6299 22.9251 17.632ZM0.97737 18.4139C0.488659 18.4148 0 18.6345 0 19.0714C0 19.9454 1.95479 19.9286 1.95479 19.0714C1.95479 18.6306 1.46608 18.413 0.97737 18.4139ZM22.0533 19.5828C21.503 19.5839 20.9527 19.8325 20.9527 20.3243C20.9527 21.3079 23.1522 21.2893 23.1522 20.3243C23.1522 19.8279 22.6035 19.5816 22.0532 19.5827L22.0533 19.5828ZM8.03518 19.9108C7.72804 19.9114 7.42121 19.9986 7.23539 20.1719C6.66032 19.929 5.70609 20.1179 5.70609 20.7284C5.70609 21.4401 7.00207 21.5596 7.48341 21.117C8.05848 21.3558 9.01271 21.1673 9.01271 20.5684C9.01271 20.1275 8.524 19.9098 8.03529 19.9108H8.03518ZM12.5 19.9901C12.0113 19.9922 11.5226 20.2097 11.5226 20.6382C11.5226 21.52 13.4774 21.5122 13.4774 20.6382C13.4774 20.2014 12.9887 19.988 12.5 19.9901ZM2.6715 20.4564C2.18279 20.4574 1.69408 20.677 1.69408 21.114C1.69408 21.9878 3.64892 21.971 3.64892 21.114C3.64892 20.673 3.16021 20.4554 2.6715 20.4564ZM17.9517 21.1124C17.4629 21.1144 16.9742 21.3336 16.9742 21.7621C16.9742 22.2532 17.5807 22.4686 18.118 22.4119C18.0813 22.4891 18.062 22.5753 18.062 22.6699C18.062 23.606 19.9318 23.6907 20.3016 22.945C20.8295 22.9864 21.4086 22.7679 21.4086 22.2922C21.4086 21.5602 20.0367 21.4525 19.5913 21.941C19.3699 21.8957 19.1273 21.8933 18.9019 21.9316C18.9196 21.8791 18.9291 21.8231 18.9291 21.7622C18.9291 21.3252 18.4404 21.1104 17.9517 21.1124H17.9517ZM10.2268 21.2865C9.66635 21.2889 9.107 21.5397 9.107 22.031C9.107 23.0423 11.3481 23.0331 11.3481 22.031C11.3481 21.5301 10.7872 21.2841 10.2267 21.2865L10.2268 21.2865ZM15.3762 22.1663C14.7337 22.1676 14.0916 22.4578 14.0916 23.0321C14.0916 24.1806 16.6607 24.1588 16.6607 23.0321C16.6607 22.4526 16.0186 22.165 15.3762 22.1663H15.3762ZM7.54412 22.5006C6.98369 22.5029 6.4227 22.7536 6.4227 23.245C6.4227 24.2562 8.6639 24.2471 8.6639 23.245C8.6639 22.744 8.10455 22.4981 7.54412 22.5005V22.5006Z" fill="#FFD600"/>
</svg>
