<svg width="30" height="24" viewBox="0 0 30 24" fill="none" xmlns="http://www.w3.org/2000/svg">
<path d="M11.5082 3.73129C12.7015 3.69719 13.8542 3.29013 14.8042 2.56729L14.7902 2.57729C15.8434 1.82331 17.0975 1.40062 18.3923 1.36329H18.4022C19.062 1.29061 19.7294 1.33393 20.3742 1.49129L20.3352 1.48329C20.8246 1.62329 21.0892 1.83329 21.1292 2.11329C21.1892 2.37596 21.0492 2.59063 20.7092 2.75729C20.3169 2.94198 19.8923 3.04862 19.4592 3.07129H19.4502C18.9491 3.17768 18.4266 3.11216 17.9672 2.88529L17.9802 2.89129C17.8531 2.82937 17.7399 2.74219 17.6476 2.63508C17.5553 2.52796 17.4858 2.40317 17.4432 2.26829L17.4412 2.26129C16.9412 2.30129 16.6266 2.41129 16.4972 2.59129C16.3785 2.73438 16.3198 2.91785 16.3333 3.10329V3.10129C16.3932 3.38129 16.7132 3.63129 17.2932 3.85129C17.7772 4.00329 18.3333 4.09129 18.9093 4.09129C19.1952 4.09129 19.4772 4.06929 19.7512 4.02829L19.7202 4.03229H19.7522C20.6412 4.03229 21.4672 3.75729 22.1482 3.28929L22.1342 3.29829C22.3304 3.14623 22.4823 2.9445 22.5742 2.714C22.6662 2.48349 22.6949 2.2326 22.6572 1.98729L22.6582 1.99529C22.5382 1.39529 22.0339 0.890959 21.1452 0.482293C19.9311 0.0309599 18.6227 -0.106623 17.3412 0.0822927L17.3832 0.0772927C15.3052 0.274626 13.9812 0.714293 13.4112 1.39629C12.6259 2.16657 11.5693 2.59721 10.4692 2.59529H10.4262H10.4282C9.97482 2.66521 9.5115 2.63275 9.07225 2.50029L9.09425 2.50629C8.9601 2.47329 8.8364 2.40709 8.73452 2.31378C8.63265 2.22047 8.55587 2.10304 8.51125 1.97229L8.50925 1.96629C8.49917 1.86141 8.52426 1.75615 8.58056 1.66708C8.63686 1.57801 8.72118 1.51019 8.82025 1.47429L8.82325 1.47329C9.07225 1.35929 9.36225 1.27929 9.66625 1.24929L9.67725 1.24829C10.0011 1.22787 10.3261 1.24431 10.6462 1.29729L10.6212 1.29429C10.9052 1.33029 11.1642 1.39929 11.4062 1.49929L11.3852 1.49229C11.4953 1.45267 11.5932 1.38513 11.6692 1.29629L11.6702 1.29529C11.695 1.26361 11.7119 1.22657 11.7197 1.18714C11.7276 1.14772 11.726 1.10701 11.7152 1.06829V1.07029C11.6552 0.850293 11.4356 0.695293 11.0562 0.605293C10.5966 0.507846 10.1245 0.483213 9.65725 0.532293L9.67625 0.530293C8.63692 0.630293 8.03225 0.860293 7.86225 1.22029C7.70913 1.48475 7.64072 1.78977 7.66625 2.09429V2.08929C7.75395 2.3942 7.91446 2.67321 8.13396 2.90229C8.35346 3.13138 8.62536 3.30366 8.92625 3.40429L8.94025 3.40829C9.50125 3.64229 10.1522 3.77829 10.8362 3.77829C11.0712 3.77829 11.3022 3.76229 11.5282 3.73129L11.5022 3.73429L11.5082 3.73129ZM25.5682 8.46929C24.9282 8.62863 24.2386 8.76863 23.4992 8.88929C22.7599 9.00996 21.9806 9.10863 21.1612 9.18529C20.3419 9.26529 19.4726 9.33096 18.5532 9.38229C17.6339 9.43363 16.6846 9.45863 15.7052 9.45729C14.6859 9.45729 13.7166 9.43229 12.7972 9.38229C11.8779 9.33229 11.0036 9.26229 10.1742 9.17229C9.34492 9.08229 8.56058 8.97763 7.82125 8.85829C7.08192 8.73896 6.39225 8.60763 5.75225 8.46429C4.79409 8.24133 3.86174 7.91926 2.97025 7.50329L3.05725 7.54029C2.55397 7.32719 2.11241 6.99086 1.77325 6.56229L1.76825 6.55529C1.88325 7.42229 2.03525 8.17829 2.23225 8.91729L2.20325 8.78929C2.43325 9.67429 2.66425 10.3893 2.92925 11.0873L2.87825 10.9343C2.57256 11.1185 2.28466 11.3308 2.01825 11.5683L2.02325 11.5633C1.75013 11.8074 1.4976 12.0737 1.26825 12.3593L1.25825 12.3723C0.824565 12.9081 0.494285 13.5198 0.284249 14.1763L0.273249 14.2163C0.0723896 14.8533 -0.0189067 15.5198 0.00324855 16.1873V16.1783C0.0382485 16.8443 0.228249 17.4593 0.538249 17.9963L0.528249 17.9763C0.847559 18.522 1.26409 19.0046 1.75725 19.4003L1.76725 19.4083C2.24909 19.7989 2.81108 20.0785 3.41325 20.2273L3.44225 20.2333C4.06435 20.365 4.70678 20.3684 5.33025 20.2433L5.30025 20.2483C5.59825 20.2003 5.86525 20.1213 6.11725 20.0153L6.09425 20.0243C6.36425 19.9143 6.62892 19.8193 6.88825 19.7393H6.85625C6.33995 19.7399 5.82799 19.645 5.34625 19.4593L5.37525 19.4693C4.86869 19.2688 4.39509 18.9934 3.97025 18.6523L3.98025 18.6603C3.5104 18.3083 3.10393 17.8788 2.77825 17.3903L2.76625 17.3713C2.43693 16.874 2.22713 16.3072 2.15325 15.7153L2.15125 15.6963C2.0297 15.1393 2.0314 14.5625 2.15625 14.0063L2.15125 14.0323C2.27718 13.4854 2.50407 12.9669 2.82025 12.5033L2.81025 12.5183C2.89025 12.4383 2.96525 12.3586 3.03525 12.2793C3.10525 12.2 3.18025 12.1203 3.26025 12.0403C3.44025 12.5003 3.63492 12.95 3.84425 13.3893C4.05358 13.8286 4.28025 14.2586 4.52425 14.6793C5.00358 15.4186 5.49325 16.133 5.99325 16.8223C6.49325 17.5116 6.99258 18.205 7.49125 18.9023C7.67925 19.2483 7.86625 19.6633 8.02425 20.0933L8.04625 20.1613C8.17325 20.4983 8.29225 20.9103 8.38125 21.3333L8.39125 21.3903C8.72825 21.8463 9.12425 22.2343 9.57425 22.5513L9.59025 22.5623C10.0382 22.8743 10.5552 23.1293 11.1092 23.3013L11.1492 23.3123C11.7622 23.5313 12.4892 23.7143 13.2392 23.8283L13.3062 23.8363C13.9782 23.9413 14.7532 24.0013 15.5422 24.0013H15.7042C16.5064 24.0005 17.3072 23.9363 18.0992 23.8093L18.0122 23.8203C18.8092 23.7007 19.5939 23.5106 20.3573 23.2523L20.2612 23.2803C20.7955 23.1047 21.3017 22.8531 21.7642 22.5333L21.7442 22.5463C22.1996 22.2281 22.5961 21.8332 22.9163 21.3793L22.9262 21.3643H23.0162C23.0962 21.0043 23.2009 20.6046 23.3302 20.1653C23.4792 19.6693 23.6572 19.2423 23.8732 18.8383L23.8542 18.8763C24.3336 18.177 24.8232 17.4873 25.3232 16.8073C25.8232 16.1273 26.3229 15.408 26.8222 14.6493C27.4724 13.4761 28.0134 12.2456 28.4382 10.9733L28.4852 10.8123C28.9299 9.49274 29.2762 8.14204 29.5212 6.77129L29.5492 6.58529C29.1894 7.02173 28.7363 7.37198 28.2232 7.61029L28.2002 7.62029C27.3846 8.00959 26.5221 8.29225 25.6342 8.46129L25.5662 8.47229L25.5682 8.46929ZM5.75325 6.39929C6.39325 6.55863 7.08292 6.69863 7.82225 6.81929C8.56158 6.93996 9.34092 7.03863 10.1602 7.11529C10.9796 7.19529 11.8439 7.25529 12.7532 7.29529C13.6626 7.33529 14.6149 7.35529 15.6102 7.35529C16.6296 7.35529 17.5939 7.33529 18.5033 7.29529C19.4126 7.25529 20.2769 7.19529 21.0962 7.11529C21.9156 7.03529 22.6899 6.93063 23.4192 6.80129C24.1486 6.67196 24.8429 6.53696 25.5022 6.39629C26.5858 6.1646 27.6312 5.7808 28.6073 5.25629L28.5452 5.28729C29.2146 4.88796 29.5492 4.48829 29.5492 4.08829C29.5414 3.92371 29.4988 3.76265 29.4244 3.61565C29.3499 3.46865 29.2453 3.33904 29.1172 3.23529L29.1152 3.23329C28.7552 2.9227 28.3437 2.67734 27.8993 2.50829L27.8713 2.49929C27.9913 2.58229 28.0903 2.68729 28.1642 2.80929L28.1672 2.81329C28.2449 2.93415 28.2865 3.07463 28.2872 3.21829C28.2872 3.63829 27.9776 4.01796 27.3582 4.35729C26.5542 4.75929 25.6213 5.08029 24.6423 5.27429L24.5712 5.28629C23.4119 5.52629 22.0929 5.73129 20.6143 5.90129C19.2043 6.06429 17.5702 6.15729 15.9142 6.15729L15.6872 6.15629H15.6992H15.5362C13.8782 6.15629 12.2402 6.06929 10.6272 5.89929L10.8282 5.91629C9.42014 5.77935 8.02067 5.56468 6.63625 5.27329L6.88625 5.31729C5.91622 5.10494 4.97659 4.77202 4.08925 4.32629L4.15725 4.35729C3.53792 4.01796 3.22825 3.64829 3.22825 3.24829C3.22825 3.06129 3.27825 2.88529 3.36625 2.73429L3.36325 2.73929C3.49025 2.54329 3.65525 2.38229 3.84925 2.26329L3.85625 2.25929C3.2395 2.4846 2.64984 2.77808 2.09825 3.13429L2.13325 3.11329C1.79225 3.31329 1.56325 3.67229 1.54925 4.08629V4.08829C1.58925 4.50829 1.95392 4.91796 2.64325 5.31729C3.54025 5.79129 4.57925 6.16629 5.67425 6.38829L5.74925 6.40129L5.75325 6.39929Z" fill="#FFD600"/>
</svg>
