<svg width="24" height="24" viewBox="0 0 24 24" fill="none" xmlns="http://www.w3.org/2000/svg">
<path d="M21.793 12.876C22.5909 12.0795 23.1995 11.1138 23.5737 10.0504C23.9479 8.98696 24.0782 7.85306 23.9549 6.73252C23.8317 5.61199 23.458 4.53349 22.8616 3.57679C22.2652 2.6201 21.4612 1.80969 20.5093 1.2055C18.0977 -0.389749 14.8703 -0.401743 12.4348 1.16952C10.3232 2.52488 9.15944 4.63589 8.95548 6.81887C8.79951 8.40213 8.19963 9.87743 7.09584 10.9809L7.05984 11.0169C5.66811 12.4082 5.66811 14.5312 6.97586 15.8266L8.16363 17.0141C8.79222 17.6421 9.64452 17.9948 10.5332 17.9948C11.4218 17.9948 12.2741 17.6421 12.9027 17.0141C14.0665 15.8506 15.6022 15.2149 17.2699 15.035C18.9136 14.8551 20.5213 14.1354 21.793 12.876ZM5.11622 21.428C5.44015 22.0997 5.33217 22.9153 4.76828 23.4671C4.52406 23.7149 4.2128 23.8861 3.87266 23.9596C3.53253 24.0332 3.17833 24.0058 2.8535 23.881C2.52866 23.7562 2.24733 23.5394 2.04401 23.257C1.84068 22.9747 1.72421 22.6392 1.70887 22.2916C1.36121 22.2763 1.02559 22.1598 0.743173 21.9566C0.460757 21.7533 0.243825 21.472 0.118987 21.1473C-0.00585029 20.8226 -0.0331646 20.4684 0.0403947 20.1284C0.113954 19.7884 0.285188 19.4772 0.533093 19.233C1.08499 18.6813 1.91283 18.5614 2.5727 18.8852L5.54813 15.9706C5.7161 16.1985 5.90806 16.4623 6.12402 16.6782L7.3118 17.8657C7.56375 18.1056 7.8037 18.3095 8.11564 18.4894L5.11622 21.428Z" fill="#FEDB22"/>
</svg>
