<svg width="26" height="26" viewBox="0 0 26 26" fill="none" xmlns="http://www.w3.org/2000/svg">
<path d="M13 1C6.3724 1 1 6.3724 1 13C1 19.6276 6.3724 25 13 25C19.6276 25 25 19.6276 25 13C25 6.3724 19.6276 1 13 1Z" stroke="#FFD600" stroke-width="1.5" stroke-linecap="round" stroke-linejoin="round"/>
<path d="M3.72513 20.6155C3.72513 20.6155 6.39993 17.2003 12.9999 17.2003C19.5999 17.2003 22.2759 20.6155 22.2759 20.6155M12.9999 13.0003C13.9547 13.0003 14.8704 12.621 15.5455 11.9459C16.2206 11.2707 16.5999 10.3551 16.5999 9.40029C16.5999 8.44551 16.2206 7.52984 15.5455 6.85471C14.8704 6.17958 13.9547 5.80029 12.9999 5.80029C12.0451 5.80029 11.1295 6.17958 10.4543 6.85471C9.77921 7.52984 9.39993 8.44551 9.39993 9.40029C9.39993 10.3551 9.77921 11.2707 10.4543 11.9459C11.1295 12.621 12.0451 13.0003 12.9999 13.0003Z" stroke="#FFD600" stroke-width="1.5" stroke-linecap="round" stroke-linejoin="round"/>
</svg>
