<svg width="24" height="24" viewBox="0 0 24 24" fill="none" xmlns="http://www.w3.org/2000/svg">
<path d="M12.0008 5.04108e-05C5.38797 5.04108e-05 0 5.39787 0 12.0244C0 18.651 5.38812 24 12.0008 24C18.6135 24 24 18.6511 24 12.0244C24 5.39787 18.6136 0 12.0008 0L12.0008 5.04108e-05ZM12.0008 0.924362C18.1058 0.924362 23.0273 5.90682 23.0273 12.0244C23.0273 18.1422 18.1056 23.0756 12.0008 23.0756C5.89605 23.0756 0.97271 18.1419 0.97271 12.0244C0.97271 5.90682 5.89585 0.924362 12.0008 0.924362ZM11.9992 1.89589C6.41831 1.89589 1.90454 6.41908 1.90454 12.0118C1.90454 17.6045 6.41831 22.1276 11.9992 22.1276C17.5803 22.1276 22.0939 17.6045 22.0939 12.0118C22.0939 6.41908 17.5803 1.89589 11.9992 1.89589ZM11.9568 2.72894L12.576 5.88943L15.1405 4.82644L12.8227 7.14914L13.1355 8.74586L12.5069 8.91442L12.9028 10.3931L14.3768 9.9962L14.2134 9.38678L15.7894 8.84659L16.6349 5.68157L16.9978 8.43087L20.0306 7.39162L17.6012 9.51588L19.732 11.1788L16.6332 10.3631L15.4138 11.4292L14.9095 10.9237L13.8298 12.0071L14.9095 13.089L15.373 12.6244L16.6144 13.711L19.7667 12.8652L17.5761 14.5518L20.0008 16.6714L16.935 15.621L16.5626 18.3011L15.7173 15.2021L14.1977 14.6825L14.3768 14.0116L12.9028 13.6149L12.5068 15.0935L13.1354 15.262L12.8226 16.8556L15.1405 19.1766L12.5759 18.1154L11.9568 21.2774L11.3345 18.1011L8.84073 19.1152L11.0878 16.8429L10.7798 15.2713L11.4414 15.0934L11.0454 13.6147L9.56986 14.0116L9.75209 14.6935L8.27975 15.1989L7.43582 18.2933L7.06502 15.6147L4.00237 16.6651L6.4255 14.5455L4.23338 12.8574L7.38875 13.7046L8.5971 12.6479L9.03709 13.0889L10.1167 12.0071L9.03709 10.9237L8.55471 11.4071L7.37 10.371L4.26642 11.1883L6.40201 9.52389L3.97099 7.39792L7.00216 8.43727L7.36371 5.68948L8.209 8.85148L9.73645 9.37423L9.57001 9.99625L11.0455 10.3931L11.4415 8.91437L10.7784 8.73649L11.0879 7.16179L8.84083 4.88787L11.3346 5.90193L11.9569 2.72884L11.9568 2.72894Z" fill="#FEDB22"/>
</svg>
