<svg width="19" height="24" viewBox="0 0 19 24" fill="none" xmlns="http://www.w3.org/2000/svg">
<path fill-rule="evenodd" clip-rule="evenodd" d="M5.10785 3.96857C5.10785 2.91604 5.52596 1.90662 6.27021 1.16237C7.01447 0.418116 8.02389 0 9.07642 0C10.1289 0 11.1384 0.418116 11.8826 1.16237C12.6269 1.90662 13.045 2.91604 13.045 3.96857C13.045 5.0211 12.6269 6.03052 11.8826 6.77478C11.1384 7.51903 10.1289 7.93714 9.07642 7.93714C8.02389 7.93714 7.01447 7.51903 6.27021 6.77478C5.52596 6.03052 5.10785 5.0211 5.10785 3.96857ZM1.26956 10.4691C2.07741 9.70224 3.14881 9.27469 4.2627 9.27469C5.3766 9.27469 6.448 9.70224 7.25585 10.4691L7.27299 10.4863L9.07642 12.2897L10.8816 10.4863L10.8987 10.4691C11.7064 9.70325 12.7771 9.27631 13.8901 9.27631C15.0032 9.27631 16.0739 9.70325 16.8816 10.4691C17.2827 10.8496 17.6023 11.3077 17.8209 11.8156C18.0394 12.3235 18.1524 12.8706 18.1529 13.4235C18.1534 13.9764 18.0414 14.5236 17.8237 15.0319C17.606 15.5401 17.2872 15.9988 16.8867 16.38L9.67299 23.3914C9.513 23.5469 9.29868 23.6339 9.07556 23.6339C8.85244 23.6339 8.63812 23.5469 8.47813 23.3914L1.26613 16.38C0.86577 15.999 0.547073 15.5405 0.329414 15.0324C0.111755 14.5244 -0.000320001 13.9774 6.86258e-07 13.4247C0.000321374 12.872 0.113031 12.3251 0.33128 11.8173C0.549528 11.3095 0.868756 10.8497 1.26956 10.4691Z" fill="#FEDB22"/>
</svg>
