<svg width="10" height="24" viewBox="0 0 10 24" fill="none" xmlns="http://www.w3.org/2000/svg">
<path d="M6.74479 6.01892C8.21755 6.01892 9.41146 4.67154 9.41146 3.00946C9.41146 1.34738 8.21755 0 6.74479 0C5.27203 0 4.07812 1.34738 4.07812 3.00946C4.07812 4.67154 5.27203 6.01892 6.74479 6.01892Z" fill="#FFD600"/>
<path d="M9.47141 18.2297C9.39774 18.1738 9.31491 18.135 9.22779 18.1157C9.14067 18.0964 9.05101 18.0969 8.96407 18.1172C8.87713 18.1375 8.79467 18.1773 8.72151 18.234C8.64836 18.2908 8.58599 18.3635 8.53807 18.4479C7.8936 19.525 7.1041 20.482 6.19807 21.2843C5.97807 21.4724 5.15807 22.1871 4.81141 22.0366C4.57141 21.9539 4.71141 21.4197 4.75807 21.194L5.11141 20.0128C5.25807 19.5313 7.81141 10.9844 8.09141 10.0063C8.50474 8.57683 8.32474 7.1699 6.43807 7.50847C5.92474 7.56866 0.718073 8.32855 0.62474 8.33607C0.537192 8.34249 0.451622 8.36831 0.372916 8.41206C0.29421 8.4558 0.223909 8.51661 0.166028 8.59101C0.108146 8.66542 0.0638164 8.75196 0.0355707 8.8457C0.00732501 8.93944 -0.00428371 9.03854 0.00140691 9.13734C0.00709752 9.23614 0.0299764 9.33271 0.068737 9.42154C0.107498 9.51036 0.161381 9.5897 0.22731 9.65502C0.29324 9.72034 0.369924 9.77037 0.452986 9.80225C0.536047 9.83412 0.623859 9.84722 0.711407 9.8408C0.711407 9.8408 2.71141 9.54738 2.93141 9.52481C3.04409 9.51239 3.15756 9.53704 3.25811 9.59578C3.35866 9.65452 3.442 9.74484 3.49807 9.85585C3.61887 10.2773 3.60232 10.7335 3.45141 11.1424C3.27807 11.8948 0.538074 20.6072 0.451407 21.1112C0.358452 21.5331 0.38426 21.9771 0.525244 22.3816C0.666229 22.7861 0.915383 23.131 1.23807 23.3683C1.84375 23.8239 2.56491 24.0432 3.29141 23.9928C3.99779 23.9831 4.69637 23.8249 5.35141 23.5263C7.01141 22.774 8.74474 20.7727 9.65807 19.2002C9.73672 19.0405 9.76115 18.8539 9.7268 18.6753C9.69245 18.4967 9.60167 18.3383 9.47141 18.2297Z" fill="#FFD600"/>
</svg>
