<svg width="21" height="23" viewBox="0 0 21 23" fill="none" xmlns="http://www.w3.org/2000/svg">
<path d="M0 20.3714V8.54286C0 8.12667 0.0931872 7.73238 0.279562 7.36C0.465937 6.98762 0.72275 6.68095 1.05 6.44L8.925 0.525714C9.38437 0.175238 9.90937 0 10.5 0C11.0906 0 11.6156 0.175238 12.075 0.525714L19.95 6.44C20.2781 6.68095 20.5354 6.98762 20.7217 7.36C20.9081 7.73238 21.0009 8.12667 21 8.54286V20.3714C21 21.0943 20.7427 21.7133 20.2282 22.2285C19.7137 22.7437 19.096 23.0009 18.375 23H14.4375C14.0656 23 13.7541 22.8738 13.503 22.6215C13.2519 22.3691 13.1259 22.0572 13.125 21.6857V15.1143C13.125 14.7419 12.999 14.43 12.747 14.1785C12.495 13.927 12.1835 13.8009 11.8125 13.8H9.1875C8.81562 13.8 8.50412 13.9262 8.253 14.1785C8.00187 14.4309 7.87587 14.7428 7.875 15.1143V21.6857C7.875 22.0581 7.749 22.3705 7.497 22.6228C7.245 22.8751 6.9335 23.0009 6.5625 23H2.625C1.90312 23 1.28537 22.7428 0.77175 22.2285C0.258125 21.7142 0.000875 21.0952 0 20.3714Z" fill="white"/>
</svg>
