<svg width="24" height="24" viewBox="0 0 24 24" fill="none" xmlns="http://www.w3.org/2000/svg">
<path d="M15.2876 0C13.7617 0 12.5305 -1.66339e-08 11.5627 0.130605C10.5581 0.264558 9.71194 0.554791 9.03996 1.22567C8.45504 1.81172 8.15811 2.53172 8.00295 3.37786C7.85226 4.20056 7.82324 5.20633 7.81654 6.41414C7.81536 6.63618 7.90242 6.8496 8.05859 7.00744C8.21476 7.16529 8.42723 7.25463 8.64927 7.25581C8.8713 7.257 9.08472 7.16993 9.24256 7.01376C9.4004 6.85759 9.48974 6.64511 9.49092 6.42307C9.49762 5.20298 9.52888 4.33786 9.64943 3.68037C9.76664 3.04856 9.95305 2.6813 10.2243 2.41005C10.5335 2.10084 10.9677 1.89991 11.7871 1.7894C12.6298 1.67665 13.7472 1.67442 15.349 1.67442H16.4653C18.0682 1.67442 19.1856 1.67665 20.0284 1.7894C20.8477 1.89991 21.2808 2.10195 21.5911 2.41005C21.8992 2.71926 22.1001 3.15237 22.2107 3.97284C22.3245 4.81451 22.3256 5.93302 22.3256 7.53488V16.4651C22.3256 18.067 22.3245 19.1844 22.2107 20.0283C22.1001 20.8476 21.8992 21.2807 21.59 21.59C21.2808 21.8992 20.8477 22.1001 20.0284 22.2106C19.1856 22.3233 18.0682 22.3256 16.4653 22.3256H15.349C13.7472 22.3256 12.6298 22.3233 11.7859 22.2106C10.9677 22.1001 10.5335 21.898 10.2243 21.59C9.95305 21.3176 9.76664 20.9514 9.64943 20.3196C9.52888 19.6621 9.49762 18.797 9.49092 17.5769C9.49034 17.467 9.4681 17.3582 9.42549 17.2569C9.38287 17.1555 9.32071 17.0636 9.24256 16.9862C9.1644 16.9089 9.07178 16.8477 8.96999 16.8062C8.86819 16.7647 8.75921 16.7436 8.64927 16.7442C8.53933 16.7448 8.43058 16.767 8.32923 16.8096C8.22788 16.8522 8.13592 16.9144 8.05859 16.9926C7.98127 17.0707 7.92009 17.1633 7.87856 17.2651C7.83703 17.3669 7.81595 17.4759 7.81654 17.5859C7.82324 18.7937 7.85226 19.7994 8.00295 20.6221C8.15923 21.4683 8.45504 22.1883 9.04107 22.7743C9.71194 23.4463 10.5592 23.7343 11.5638 23.8705C12.5305 24 13.7617 24 15.2876 24H16.5267C18.0537 24 19.2838 24 20.2516 23.8705C21.2563 23.7343 22.1024 23.4463 22.7744 22.7743C23.4464 22.1023 23.7343 21.2562 23.8705 20.2515C24 19.2837 24 18.0525 24 16.5265V7.47349C24 5.94754 24 4.71628 23.8705 3.74847C23.7355 2.74381 23.4464 1.89767 22.7744 1.22567C22.1024 0.553675 21.2563 0.265674 20.2516 0.130605C19.2838 -1.66339e-08 18.0526 0 16.5267 0H15.2876Z" fill="#FFD600"/>
<path d="M15.3491 11.1627C15.5712 11.1627 15.7841 11.2509 15.9411 11.4079C16.0981 11.5649 16.1863 11.7779 16.1863 11.9999C16.1863 12.222 16.0981 12.4349 15.9411 12.5919C15.7841 12.7489 15.5712 12.8371 15.3491 12.8371H3.10046L5.28944 14.7125C5.45819 14.857 5.56263 15.0626 5.5798 15.284C5.59697 15.5055 5.52545 15.7248 5.38097 15.8935C5.2365 16.0623 5.03091 16.1667 4.80943 16.1839C4.58795 16.201 4.36872 16.1295 4.19998 15.985L0.293081 12.6362C0.201175 12.5576 0.127386 12.46 0.0767922 12.3502C0.0261982 12.2404 0 12.1209 0 11.9999C0 11.879 0.0261982 11.7595 0.0767922 11.6497C0.127386 11.5398 0.201175 11.4422 0.293081 11.3636L4.19998 8.01481C4.28353 7.94328 4.38036 7.8889 4.48493 7.85478C4.5895 7.82067 4.69977 7.80748 4.80943 7.81598C4.9191 7.82448 5.02602 7.8545 5.12408 7.90432C5.22215 7.95414 5.30944 8.02279 5.38097 8.10635C5.45251 8.1899 5.50689 8.28673 5.541 8.39131C5.57512 8.49588 5.5883 8.60615 5.5798 8.71582C5.5713 8.82548 5.54128 8.9324 5.49146 9.03047C5.44164 9.12854 5.373 9.21583 5.28944 9.28737L3.10158 11.1627H15.3491Z" fill="#FFD600"/>
</svg>
