<svg width="20" height="24" viewBox="0 0 20 24" fill="none" xmlns="http://www.w3.org/2000/svg">
<path d="M4.80333 2.18182H1.11111V0H6.30778L8.53 5.45455H20V7.63636H17.6467L16.7278 22.9735C16.7111 23.2511 16.587 23.512 16.3809 23.7028C16.1747 23.8936 15.9022 23.9999 15.6189 24H4.38111C4.09782 23.9999 3.82526 23.8936 3.61915 23.7028C3.41304 23.512 3.28894 23.2511 3.27222 22.9735L2.35333 7.63636H0V5.45455H6.13667L4.80333 2.18182ZM4.57889 7.63636L4.77667 10.9364C7.74556 11.0564 9.18667 11.5964 10.4 12.0731C11.5678 12.5313 12.5333 12.9305 15.0967 13.0549L15.4211 7.63636H4.57889Z" fill="#FEDB22"/>
</svg>
