<svg width="22" height="24" viewBox="0 0 22 24" fill="none" xmlns="http://www.w3.org/2000/svg">
<path fill-rule="evenodd" clip-rule="evenodd" d="M3.66667 7.2C3.66667 5.29044 4.43928 3.45909 5.81455 2.10883C7.18982 0.758569 9.05508 0 11 0C12.9449 0 14.8102 0.758569 16.1854 2.10883C17.5607 3.45909 18.3333 5.29044 18.3333 7.2H19.5556C20.2039 7.2 20.8256 7.45286 21.284 7.90294C21.7425 8.35303 22 8.96348 22 9.6V21.6C22 22.2365 21.7425 22.847 21.284 23.2971C20.8256 23.7471 20.2039 24 19.5556 24H2.44444C1.79614 24 1.17438 23.7471 0.715961 23.2971C0.257539 22.847 0 22.2365 0 21.6V9.6C0 8.96348 0.257539 8.35303 0.715961 7.90294C1.17438 7.45286 1.79614 7.2 2.44444 7.2H3.66667ZM11 2.4C12.2966 2.4 13.5401 2.90571 14.457 3.80589C15.3738 4.70606 15.8889 5.92696 15.8889 7.2H6.11111C6.11111 5.92696 6.62619 4.70606 7.54303 3.80589C8.45988 2.90571 9.70339 2.4 11 2.4ZM13.4444 14.4C13.4444 14.8213 13.3315 15.2351 13.1169 15.6C12.9024 15.9648 12.5938 16.2678 12.2222 16.4784V18C12.2222 18.3183 12.0935 18.6235 11.8642 18.8485C11.635 19.0736 11.3242 19.2 11 19.2C10.6758 19.2 10.365 19.0736 10.1358 18.8485C9.90655 18.6235 9.77778 18.3183 9.77778 18V16.4784C9.3118 16.2142 8.94761 15.8065 8.74171 15.3184C8.53581 14.8303 8.49969 14.2891 8.63896 13.7788C8.77823 13.2685 9.0851 12.8176 9.51198 12.496C9.93887 12.1744 10.4619 12 11 12C11.6483 12 12.2701 12.2529 12.7285 12.7029C13.1869 13.153 13.4444 13.7635 13.4444 14.4Z" fill="#FFD600"/>
</svg>
