<svg width="25" height="25" viewBox="0 0 25 25" fill="none" xmlns="http://www.w3.org/2000/svg">
<path d="M24 24L16.3333 16.3333M1 9.94444C1 11.119 1.23136 12.2821 1.68086 13.3673C2.13036 14.4525 2.7892 15.4386 3.61977 16.2691C4.45034 17.0997 5.43636 17.7585 6.52155 18.208C7.60674 18.6575 8.76984 18.8889 9.94444 18.8889C11.119 18.8889 12.2821 18.6575 13.3673 18.208C14.4525 17.7585 15.4386 17.0997 16.2691 16.2691C17.0997 15.4386 17.7585 14.4525 18.208 13.3673C18.6575 12.2821 18.8889 11.119 18.8889 9.94444C18.8889 8.76984 18.6575 7.60674 18.208 6.52155C17.7585 5.43636 17.0997 4.45034 16.2691 3.61977C15.4386 2.7892 14.4525 2.13036 13.3673 1.68086C12.2821 1.23135 11.119 1 9.94444 1C8.76984 1 7.60674 1.23135 6.52155 1.68086C5.43636 2.13036 4.45034 2.7892 3.61977 3.61977C2.7892 4.45034 2.13036 5.43636 1.68086 6.52155C1.23136 7.60674 1 8.76984 1 9.94444Z" stroke="white" stroke-width="2" stroke-linecap="round" stroke-linejoin="round"/>
</svg>
